HIERARCHY
ROOT mixamorig:Hips
{
	OFFSET 0.000000 201.639420 0.000000
	CHANNELS 6 Xposition Yposition Zposition Xrotation Yrotation Zrotation
	JOINT mixamorig:Spine
	{
		OFFSET 0.006200 19.524994 -2.481800
		CHANNELS 3 Xrotation Yrotation Zrotation
		JOINT mixamorig:Spine1
		{
			OFFSET -0.000900 22.835007 -2.825400
			CHANNELS 3 Xrotation Yrotation Zrotation
			JOINT mixamorig:Spine2
			{
				OFFSET -0.020600 26.552490 -3.193300
				CHANNELS 3 Xrotation Yrotation Zrotation
				JOINT mixamorig:Neck
				{
					OFFSET -0.060000 30.701813 1.352200
					CHANNELS 3 Xrotation Yrotation Zrotation
					JOINT mixamorig:Head
					{
						OFFSET -0.087200 22.547607 3.670900
						CHANNELS 3 Xrotation Yrotation Zrotation
						JOINT mixamorig:HeadTop_End
						{
							OFFSET -0.830600 40.355194 7.893500
							CHANNELS 3 Xrotation Yrotation Zrotation
							End Site
							{
								OFFSET 0.000000 30.592346 0.000000
							}
						}
						JOINT mixamorig:RightEye
						{
							OFFSET -6.302100 18.118591 16.197100
							CHANNELS 3 Xrotation Yrotation Zrotation
							End Site
							{
								OFFSET 0.000000 30.592346 0.000000
							}
						}
						JOINT mixamorig:LeftEye
						{
							OFFSET 6.741500 18.382690 16.401899
							CHANNELS 3 Xrotation Yrotation Zrotation
							End Site
							{
								OFFSET 0.000000 30.592346 0.000000
							}
						}
					}
				}
				JOINT mixamorig:LeftShoulder
				{
					OFFSET 11.924900 18.230499 1.425400
					CHANNELS 3 Xrotation Yrotation Zrotation
					JOINT mixamorig:LeftArm
					{
						OFFSET 25.435989 -0.697632 -5.229300
						CHANNELS 3 Xrotation Yrotation Zrotation
						JOINT mixamorig:LeftForeArm
						{
							OFFSET 54.684776 0.000000 0.000000
							CHANNELS 3 Xrotation Yrotation Zrotation
							JOINT mixamorig:LeftHand
							{
								OFFSET 55.098175 0.000000 0.000000
								CHANNELS 3 Xrotation Yrotation Zrotation
								JOINT mixamorig:LeftHandMiddle1
								{
									OFFSET 23.369751 0.000000 0.000000
									CHANNELS 3 Xrotation Yrotation Zrotation
									JOINT mixamorig:LeftHandMiddle2
									{
										OFFSET 6.378677 0.000000 0.000000
										CHANNELS 3 Xrotation Yrotation Zrotation
										JOINT mixamorig:LeftHandMiddle3
										{
											OFFSET 6.148331 0.000000 0.000000
											CHANNELS 3 Xrotation Yrotation Zrotation
											JOINT mixamorig:LeftHandMiddle4
											{
												OFFSET 6.582504 0.000000 0.000000
												CHANNELS 3 Xrotation Yrotation Zrotation
												End Site
												{
													OFFSET -1.168900 6.395691 1.028606
												}
											}
										}
									}
								}
								JOINT mixamorig:LeftHandThumb1
								{
									OFFSET 7.235672 -3.848206 5.434273
									CHANNELS 3 Xrotation Yrotation Zrotation
									JOINT mixamorig:LeftHandThumb2
									{
										OFFSET 6.568451 -3.792297 3.792300
										CHANNELS 3 Xrotation Yrotation Zrotation
										JOINT mixamorig:LeftHandThumb3
										{
											OFFSET 6.063080 -3.500519 3.500518
											CHANNELS 3 Xrotation Yrotation Zrotation
											JOINT mixamorig:LeftHandThumb4
											{
												OFFSET 4.793182 -2.767334 2.767349
												CHANNELS 3 Xrotation Yrotation Zrotation
												End Site
												{
													OFFSET 0.101639 6.054260 1.275483
												}
											}
										}
									}
								}
								JOINT mixamorig:LeftHandIndex1
								{
									OFFSET 23.101074 -0.309540 4.992809
									CHANNELS 3 Xrotation Yrotation Zrotation
									JOINT mixamorig:LeftHandIndex2
									{
										OFFSET 6.226883 0.000000 0.000000
										CHANNELS 3 Xrotation Yrotation Zrotation
										JOINT mixamorig:LeftHandIndex3
										{
											OFFSET 6.094330 0.000000 0.000000
											CHANNELS 3 Xrotation Yrotation Zrotation
											JOINT mixamorig:LeftHandIndex4
											{
												OFFSET 5.482605 0.000000 0.000000
												CHANNELS 3 Xrotation Yrotation Zrotation
												End Site
												{
													OFFSET -1.427902 5.233032 0.797164
												}
											}
										}
									}
								}
								JOINT mixamorig:LeftHandRing1
								{
									OFFSET 22.299240 0.021149 -3.964172
									CHANNELS 3 Xrotation Yrotation Zrotation
									JOINT mixamorig:LeftHandRing2
									{
										OFFSET 6.321869 0.000000 0.000000
										CHANNELS 3 Xrotation Yrotation Zrotation
										JOINT mixamorig:LeftHandRing3
										{
											OFFSET 5.899796 0.000000 0.000000
											CHANNELS 3 Xrotation Yrotation Zrotation
											JOINT mixamorig:LeftHandRing4
											{
												OFFSET 6.517899 0.000000 0.000000
												CHANNELS 3 Xrotation Yrotation Zrotation
												End Site
												{
													OFFSET -1.637299 6.232208 0.980890
												}
											}
										}
									}
								}
								JOINT mixamorig:LeftHandPinky1
								{
									OFFSET 20.463791 -0.302338 -8.562233
									CHANNELS 3 Xrotation Yrotation Zrotation
									JOINT mixamorig:LeftHandPinky2
									{
										OFFSET 6.908646 0.000000 0.000000
										CHANNELS 3 Xrotation Yrotation Zrotation
										JOINT mixamorig:LeftHandPinky3
										{
											OFFSET 4.622849 0.000000 0.000000
											CHANNELS 3 Xrotation Yrotation Zrotation
											JOINT mixamorig:LeftHandPinky4
											{
												OFFSET 5.216080 0.000000 0.000000
												CHANNELS 3 Xrotation Yrotation Zrotation
												End Site
												{
													OFFSET -0.606308 5.116241 0.814926
												}
											}
										}
									}
								}
							}
						}
					}
				}
				JOINT mixamorig:RightShoulder
				{
					OFFSET -12.001300 18.284088 1.348900
					CHANNELS 3 Xrotation Yrotation Zrotation
					JOINT mixamorig:RightArm
					{
						OFFSET -25.308500 -0.751312 -5.164599
						CHANNELS 3 Xrotation Yrotation Zrotation
						JOINT mixamorig:RightForeArm
						{
							OFFSET -54.684429 0.000000 0.000000
							CHANNELS 3 Xrotation Yrotation Zrotation
							JOINT mixamorig:RightHand
							{
								OFFSET -55.150291 0.000000 0.000000
								CHANNELS 3 Xrotation Yrotation Zrotation
								JOINT mixamorig:RightHandMiddle1
								{
									OFFSET -23.317566 0.000000 0.000000
									CHANNELS 3 Xrotation Yrotation Zrotation
									JOINT mixamorig:RightHandMiddle2
									{
										OFFSET -6.378403 0.000000 0.000000
										CHANNELS 3 Xrotation Yrotation Zrotation
										JOINT mixamorig:RightHandMiddle3
										{
											OFFSET -6.148193 0.000000 0.000000
											CHANNELS 3 Xrotation Yrotation Zrotation
											JOINT mixamorig:RightHandMiddle4
											{
												OFFSET -6.583389 0.000000 0.000000
												CHANNELS 3 Xrotation Yrotation Zrotation
												End Site
												{
													OFFSET 1.171692 6.395905 1.029786
												}
											}
										}
									}
								}
								JOINT mixamorig:RightHandThumb1
								{
									OFFSET -7.190521 -3.860474 5.435846
									CHANNELS 3 Xrotation Yrotation Zrotation
									JOINT mixamorig:RightHandThumb2
									{
										OFFSET -6.567429 -3.791718 3.791708
										CHANNELS 3 Xrotation Yrotation Zrotation
										JOINT mixamorig:RightHandThumb3
										{
											OFFSET -6.062469 -3.500153 3.500166
											CHANNELS 3 Xrotation Yrotation Zrotation
											JOINT mixamorig:RightHandThumb4
											{
												OFFSET -4.792618 -2.767029 2.767022
												CHANNELS 3 Xrotation Yrotation Zrotation
												End Site
												{
													OFFSET -0.100327 6.053253 1.276754
												}
											}
										}
									}
								}
								JOINT mixamorig:RightHandIndex1
								{
									OFFSET -23.048981 -0.310791 4.992554
									CHANNELS 3 Xrotation Yrotation Zrotation
									JOINT mixamorig:RightHandIndex2
									{
										OFFSET -6.227539 0.000000 0.000000
										CHANNELS 3 Xrotation Yrotation Zrotation
										JOINT mixamorig:RightHandIndex3
										{
											OFFSET -6.095047 0.000000 0.000000
											CHANNELS 3 Xrotation Yrotation Zrotation
											JOINT mixamorig:RightHandIndex4
											{
												OFFSET -5.484772 0.000000 0.000000
												CHANNELS 3 Xrotation Yrotation Zrotation
												End Site
												{
													OFFSET 1.420593 5.237305 0.797056
												}
											}
										}
									}
								}
								JOINT mixamorig:RightHandRing1
								{
									OFFSET -22.246323 0.020569 -3.963762
									CHANNELS 3 Xrotation Yrotation Zrotation
									JOINT mixamorig:RightHandRing2
									{
										OFFSET -6.322128 0.000000 0.000000
										CHANNELS 3 Xrotation Yrotation Zrotation
										JOINT mixamorig:RightHandRing3
										{
											OFFSET -5.900024 0.000000 0.000000
											CHANNELS 3 Xrotation Yrotation Zrotation
											JOINT mixamorig:RightHandRing4
											{
												OFFSET -6.518356 0.000000 0.000000
												CHANNELS 3 Xrotation Yrotation Zrotation
												End Site
												{
													OFFSET 1.636398 6.232697 0.982186
												}
											}
										}
									}
								}
								JOINT mixamorig:RightHandPinky1
								{
									OFFSET -20.411011 -0.303314 -8.561701
									CHANNELS 3 Xrotation Yrotation Zrotation
									JOINT mixamorig:RightHandPinky2
									{
										OFFSET -6.907349 0.000000 0.000000
										CHANNELS 3 Xrotation Yrotation Zrotation
										JOINT mixamorig:RightHandPinky3
										{
											OFFSET -4.623840 0.000000 0.000000
											CHANNELS 3 Xrotation Yrotation Zrotation
											JOINT mixamorig:RightHandPinky4
											{
												OFFSET -5.218353 0.000000 0.000000
												CHANNELS 3 Xrotation Yrotation Zrotation
												End Site
												{
													OFFSET 0.602097 5.118835 0.816273
												}
											}
										}
									}
								}
							}
						}
					}
				}
			}
		}
	}
	JOINT mixamorig:LeftUpLeg
	{
		OFFSET 18.168400 -13.561905 -0.039000
		CHANNELS 3 Xrotation Yrotation Zrotation
		JOINT mixamorig:LeftLeg
		{
			OFFSET 0.577358 -80.825211 -3.695000
			CHANNELS 3 Xrotation Yrotation Zrotation
			JOINT mixamorig:LeftFoot
			{
				OFFSET -0.577356 -83.370262 -6.520700
				CHANNELS 3 Xrotation Yrotation Zrotation
				JOINT mixamorig:LeftToeBase
				{
					OFFSET 0.750401 -20.798306 25.135401
					CHANNELS 3 Xrotation Yrotation Zrotation
					JOINT mixamorig:LeftToe_End
					{
						OFFSET -0.000500 0.001200 19.917799
						CHANNELS 3 Xrotation Yrotation Zrotation
						End Site
						{
							OFFSET 0.000000 19.917805 0.000000
						}
					}
				}
			}
		}
	}
	JOINT mixamorig:RightUpLeg
	{
		OFFSET -18.162500 -13.585098 -0.041000
		CHANNELS 3 Xrotation Yrotation Zrotation
		JOINT mixamorig:RightLeg
		{
			OFFSET -0.595024 -80.945297 -3.631900
			CHANNELS 3 Xrotation Yrotation Zrotation
			JOINT mixamorig:RightFoot
			{
				OFFSET 0.595024 -83.218193 -6.561200
				CHANNELS 3 Xrotation Yrotation Zrotation
				JOINT mixamorig:RightToeBase
				{
					OFFSET -0.753601 -20.807106 25.115000
					CHANNELS 3 Xrotation Yrotation Zrotation
					JOINT mixamorig:RightToe_End
					{
						OFFSET 0.000299 0.001700 19.918200
						CHANNELS 3 Xrotation Yrotation Zrotation
						End Site
						{
							OFFSET 0.000000 19.918203 0.000000
						}
					}
				}
			}
		}
	}
}
MOTION
Frames: 4
Frame Time: 0.033333
14.240193 192.733963 310.343872 -5.264181 -10.241305 0.073095 -1.235893 0.195323 -0.824342 -2.471290 0.322848 -1.233744 -2.471287 0.322850 -1.233744 -1.435775 0.189484 2.801614 6.046559 3.878034 -3.754594 -0.000000 -0.000000 -0.000000 -0.000000 -0.000000 -0.000000 -0.000000 -0.000000 -0.000000 -3.959894 -6.201772 -4.216748 11.244715 -3.130394 -64.119712 -0.108521 -81.658299 -0.075223 -63.767309 -14.348605 -9.517606 -1.103851 -0.082694 -24.609025 -0.787104 -2.669181 -34.887612 -0.000003 -0.000005 -0.000000 0.000001 -0.000001 -0.000001 -33.108410 -10.486319 5.650638 7.419282 22.493982 -3.298101 0.000003 0.000005 -0.000012 0.000004 0.000001 0.000001 -9.659024 1.523120 -32.674102 0.177144 0.518716 -29.822423 0.000005 0.000000 0.000001 0.000001 -0.000003 -0.000002 0.119357 1.273439 -23.880078 -1.037699 -2.925360 -36.671532 0.000008 -0.000006 -0.000004 -0.000000 0.000001 -0.000002 3.686041 -2.560714 -19.878825 -1.283871 -3.451276 -30.343020 0.000011 -0.000009 0.000007 -0.000001 -0.000001 -0.000000 -1.018651 3.515153 2.431809 -3.505596 11.728382 70.293165 -0.043960 70.525576 0.021874 -59.476898 32.921771 23.546073 -2.094207 0.783384 42.376396 -0.307449 0.929832 23.751213 0.000008 -0.000001 0.000001 -0.000001 0.000000 0.000001 -39.097345 -8.697659 18.256816 3.673769 -9.467232 -2.242921 -0.000008 0.000011 0.000000 -0.000002 0.000000 -0.000000 -0.714357 -0.489220 40.848168 0.396371 -1.654993 32.788743 -0.000004 -0.000002 0.000001 0.000001 0.000000 -0.000001 0.234951 -4.945495 37.900259 -0.779424 3.497291 29.148532 0.000006 0.000008 -0.000005 0.000001 -0.000001 0.000003 2.371084 -10.708556 24.662008 -1.525045 8.172334 32.203577 0.000006 0.000005 -0.000000 0.000000 0.000003 -0.000001 -16.175452 7.274722 0.769264 35.731192 -0.745250 -1.398850 -14.624555 4.812536 2.475043 -2.392747 -0.030101 0.068023 -0.000000 -0.000000 -0.000000 -19.232191 1.359907 -12.932698 53.328266 0.708552 1.922210 -6.438905 12.232535 1.908977 -10.825502 -0.584769 3.011939 0.000000 0.000000 -0.000000 
13.757728 192.696075 311.516022 -4.933885 -10.174438 -0.125097 -1.221622 0.155713 -0.769893 -2.442492 0.274737 -1.239515 -2.442492 0.274736 -1.239514 -1.472524 0.153154 2.762632 5.851607 3.647455 -3.826357 0.000000 -0.000000 0.000000 0.000000 -0.000000 0.000000 0.000000 -0.000000 0.000000 -3.955854 -6.241419 -4.287555 11.162555 -2.867617 -64.151131 -0.115962 -82.309182 -0.083245 -63.346098 -13.933476 -8.847001 -1.119184 -0.115997 -24.808792 -0.807637 -2.696814 -35.293042 -0.000003 0.000001 -0.000003 -0.000002 0.000000 -0.000000 -33.318964 -10.814755 5.416213 7.631080 22.955511 -3.372853 0.000004 0.000007 -0.000011 0.000004 0.000002 0.000000 -9.707921 1.521364 -32.909743 0.178276 0.520429 -29.953573 0.000006 -0.000003 0.000004 -0.000002 -0.000001 0.000000 0.104257 1.249107 -24.068881 -1.058996 -2.955208 -37.121877 0.000007 -0.000002 -0.000000 -0.000002 0.000000 -0.000003 3.604037 -2.681423 -20.309395 -1.296255 -3.478576 -30.636735 0.000011 -0.000008 0.000008 -0.000002 0.000002 -0.000002 -1.031201 3.549690 2.508819 -3.564254 11.448976 70.295761 -0.045637 71.209831 0.023283 -58.613357 32.811057 22.982393 -2.094216 0.783365 42.376399 -0.307456 0.929806 23.751228 0.000007 -0.000002 -0.000001 -0.000001 -0.000000 0.000002 -39.097355 -8.697665 18.256804 3.673784 -9.467217 -2.242927 -0.000005 0.000009 -0.000003 -0.000001 0.000002 0.000004 -0.714360 -0.489240 40.848155 0.396365 -1.654970 32.788733 -0.000004 -0.000003 0.000005 0.000002 -0.000000 -0.000001 0.234946 -4.945492 37.900259 -0.779429 3.497299 29.148529 0.000009 0.000012 -0.000004 -0.000000 -0.000001 0.000002 2.371087 -10.708564 24.662020 -1.525048 8.172341 32.203553 0.000002 0.000005 0.000001 0.000004 -0.000002 -0.000001 -16.262740 7.216866 1.182506 36.006930 -0.784118 -1.407767 -15.151275 4.686528 2.320228 -2.316529 -0.030025 0.067851 0.000000 -0.000000 0.000000 -18.609130 1.060214 -12.192668 48.154449 0.591325 1.752303 -8.713493 12.443927 3.189837 -10.321247 -0.468775 2.530878 -0.000000 -0.000000 0.000000 
13.090122 192.662354 312.680908 -4.634676 -9.861705 -0.380315 -1.207360 0.112559 -0.717368 -2.413911 0.211531 -1.249377 -2.413913 0.211528 -1.249378 -1.441585 0.109808 2.729302 5.555970 3.354565 -3.899965 -0.000000 -0.000000 -0.000000 -0.000000 -0.000000 -0.000000 -0.000000 -0.000000 -0.000000 -3.953709 -6.282729 -4.339484 11.095265 -2.751343 -64.116837 -0.123292 -82.872604 -0.090928 -63.093353 -13.519589 -8.377694 -1.133494 -0.145920 -25.171972 -0.848101 -2.746227 -36.025542 -0.000004 0.000003 -0.000002 -0.000001 -0.000000 -0.000002 -33.700727 -11.521654 5.042857 8.092669 23.859094 -3.447448 0.000004 0.000009 -0.000012 0.000002 -0.000002 0.000001 -9.718387 1.548289 -33.136827 0.178868 0.522140 -30.083886 0.000004 -0.000001 0.000002 -0.000001 -0.000002 -0.000003 0.062046 1.217120 -24.410270 -1.094696 -3.008878 -37.935605 0.000007 -0.000003 -0.000001 -0.000000 -0.000001 -0.000002 3.374083 -2.839232 -21.099059 -1.305562 -3.528038 -31.167215 0.000010 -0.000007 0.000010 -0.000002 0.000002 0.000000 -1.013267 3.507013 2.382706 -3.568169 11.019376 70.522475 -0.047033 71.959506 0.024105 -57.714969 32.725554 22.157402 -2.094192 0.783382 42.376375 -0.307458 0.929803 23.751233 0.000006 0.000000 0.000000 -0.000001 0.000002 0.000002 -38.681168 -8.900851 18.214837 3.620832 -9.576080 -2.119042 -0.000002 0.000006 -0.000003 -0.000002 0.000001 0.000001 -0.714351 -0.489226 40.848161 0.396371 -1.654973 32.788726 -0.000001 -0.000004 0.000005 0.000001 0.000006 -0.000004 0.234969 -4.945502 37.900245 -0.779440 3.497290 29.148529 0.000005 0.000010 -0.000003 0.000003 0.000001 0.000001 2.371094 -10.708552 24.662007 -1.525029 8.172325 32.203580 0.000003 0.000004 0.000002 0.000004 0.000001 -0.000001 -16.356736 7.065353 1.721456 36.309760 -0.822807 -1.417426 -15.658289 4.364118 2.089149 -2.249714 -0.029963 0.067696 -0.000000 0.000000 0.000000 -17.265530 1.080770 -11.207801 42.669114 0.446276 1.563984 -11.328847 11.898500 5.752260 -7.752259 -0.201150 1.065485 0.000000 0.000000 0.000000 
12.257990 192.624908 313.827972 -4.371474 -9.390448 -0.649227 -1.198101 0.074776 -0.676213 -2.395483 0.151575 -1.265226 -2.395483 0.151580 -1.265226 -1.363320 0.061084 2.702491 5.181456 3.022154 -3.975993 0.000000 -0.000001 -0.000000 0.000000 -0.000001 -0.000000 0.000000 -0.000001 -0.000000 -3.952655 -6.294376 -4.358047 11.116945 -2.437296 -64.012362 -0.133924 -83.367602 -0.101973 -62.823527 -13.143186 -8.532651 -1.149999 -0.179573 -25.597034 -0.896362 -2.803380 -36.882735 -0.000006 0.000004 -0.000001 -0.000002 0.000000 -0.000000 -33.714299 -11.519794 5.017614 8.091261 23.874334 -3.464797 0.000005 0.000008 -0.000010 0.000001 0.000001 0.000001 -9.727932 1.578765 -33.382065 0.179473 0.524006 -30.224813 0.000006 0.000001 0.000001 -0.000001 0.000003 -0.000001 0.011793 1.180506 -24.809779 -1.137263 -3.071060 -38.887784 0.000007 -0.000005 -0.000000 0.000000 -0.000001 0.000001 3.098818 -3.017659 -22.024307 -1.316513 -3.585782 -31.787967 0.000013 -0.000005 0.000005 -0.000002 0.000005 -0.000004 -0.985223 3.438116 2.193559 -3.495781 10.650525 70.747564 -0.048235 72.698778 0.024845 -56.826839 32.744016 20.791646 -2.094215 0.783382 42.376389 -0.307447 0.929813 23.751228 0.000009 -0.000006 0.000000 0.000000 -0.000001 0.000001 -37.542128 -9.461975 18.118622 3.476509 -9.876416 -1.780342 -0.000008 0.000005 -0.000001 0.000000 -0.000000 -0.000004 -0.714345 -0.489205 40.848179 0.396348 -1.654995 32.788723 -0.000002 -0.000002 0.000003 -0.000002 -0.000002 0.000001 0.234965 -4.945492 37.900235 -0.779442 3.497304 29.148560 0.000006 0.000009 -0.000005 -0.000000 -0.000000 0.000004 2.371099 -10.708563 24.662012 -1.525043 8.172339 32.203570 0.000007 0.000009 0.000002 -0.000003 0.000001 0.000000 -16.428775 6.713355 2.273308 36.614042 -0.859431 -1.427198 -16.143461 4.067108 1.793547 -2.232041 -0.029958 0.067651 0.000000 0.000000 0.000000 -15.448194 1.301506 -10.170866 37.313586 0.317453 1.375650 -13.346911 10.541873 8.049237 -4.933005 -0.090833 -0.334942 -0.000000 0.000000 -0.000000 
